<?xml version="1.0" encoding="UTF-8"?><svg xmlns="http://www.w3.org/2000/svg" xmlns:xlink="http://www.w3.org/1999/xlink" version="1.1" id="Laag_1" x="0px" y="0px" viewBox="0 0 259.7 133.7" style="enable-background:new 0 0 259.7 133.7;" xml:space="preserve"><style type="text/css">.st0{fill:#FFFFFF;}</style><g><g><polygon class="st0" points="155.4,54.8 104.2,54.8 104.2,54.2 155.4,54.2 155.4,54.8 "/><g><g><path class="st0" d="M193.8,1.3l-3.8,0c-1.6,0-2.9,1.3-2.9,2.9v24.7h16.7l1.3-5h-11.3V1.3z"/><path class="st0" d="M214.7,1.3l-3.8,0c-1.6,0-2.9,1.3-2.9,2.9v24.7h16.7l1.3-5h-11.3V1.3z"/><path class="st0" d="M79.7,4.2l0,14.5c0,3-1.6,5.8-5.4,5.8c-3.8,0-5.4-2.8-5.4-5.8l0-17.4c-2.5,0-6.7,0-6.7,0v16.6 c0,7.8,4.5,11.7,12.1,11.7c7.6,0,12.2-3.9,12.1-11.7V1.3h-3.9C80.9,1.3,79.7,2.6,79.7,4.2z"/><path class="st0" d="M171.7,17.1h9.4v-5h-9.4V6.3h11.6v-5H165l0,24.7c0,1.5,1.2,2.8,2.7,2.9h14.9l1.3-5h-12.2V17.1z"/><path class="st0" d="M139.8,15.1c0,8.6,5.7,13.8,13.2,13.8l7.3,0v-5h-4.1c-4.9,0-9.6-1.6-9.6-8.8c0-7.2,4.7-8.7,9.6-8.7h4.1v-5 H153C145.5,1.3,139.8,6.5,139.8,15.1z"/><path class="st0" d="M45.8,1.3h-9.5c-1.6,0-2.9,1.3-2.9,2.9v24.7l12.4,0c7.5,0,13.2-5.2,13.2-13.8C59,6.5,53.3,1.3,45.8,1.3z M42.6,23.9h-2.5V6.3h2.5c4.9,0,9.6,1.5,9.6,8.7C52.2,22.2,47.5,23.9,42.6,23.9z"/><path class="st0" d="M223.1,7.2c1.6,0,3-1.3,3-3c0-1.7-1.4-3-3-3c-1.6,0-3,1.3-3,3C220.1,5.9,221.5,7.2,223.1,7.2z M223.1,1.7 c1.4,0,2.4,1.1,2.4,2.5c0,1.4-1.1,2.5-2.4,2.5c-1.4,0-2.4-1.1-2.4-2.5C220.7,2.8,221.7,1.7,223.1,1.7z"/><path class="st0" d="M222.5,4.4h0.6l0.9,1.5h0.6l-1-1.5c0.5-0.1,0.9-0.3,0.9-1c0-0.7-0.4-1-1.2-1H222v3.4h0.5V4.4z M222.5,2.9 h0.7c0.4,0,0.8,0.1,0.8,0.5c0,0.5-0.4,0.6-0.8,0.6h-0.6V2.9z"/><path class="st0" d="M124.7,1.3c-2.3,0-3.2,1-3.9,2.9l-8.2,24l-5.3-7.9c4.6-1.3,6.3-5.2,6.3-8.9c0-5.6-4.8-10.2-10.4-10.2h-9.9 c-1.6,0-2.9,1.3-2.9,2.9l0,24.7h6.7V6.3h4c5.5,0,6.4,3.5,6.4,5.1c0,5.1-4.8,5.5-8,5.7l6.8,11.8h8.3h4.6l1.4-4.8h10.5l1.4,4.8 h7.3l-9.3-27.6H124.7z M121.7,19.8l4.2-14.3l4.2,14.3H121.7z"/></g></g><g><path class="st0" d="M184.2,97.2h-3.9l-1.2-2.9h-3.2h-3.2l-1.2,2.9h-3.9l8-18.2h0.3h0.3L184.2,97.2z M177.9,91.2l-1.5-4 c-0.3-0.7-0.5-1.4-0.5-1.4s-0.2,0.6-0.5,1.4l-1.5,4l2,0L177.9,91.2z M164.7,97.3h-4.6l-3.6-6.1h-2v6.1h-4v-18h6.7 c4.2,0,6.8,2.2,6.8,6c0,2.5-1.2,4.3-3.4,5.3L164.7,97.3z M159.9,85.2c0-1.7-0.9-2.4-2.7-2.4h-2.6v4.9h2.6 C159,87.7,159.9,86.9,159.9,85.2 M230.9,79.2v7.6c0,0.8,0,1.5,0,2.2c-0.4-0.5-1-1-1.6-1.6l-8.9-8.4l-0.1-0.1h-0.6v18.2h3.8v-7.6 c0-0.8,0-1.6,0-2.3c0.4,0.5,1,1,1.6,1.6l8.9,8.4l0.1,0.1h0.6V79.2H230.9z M258.1,87.6l0-0.2h-8.6V91h4.4c-0.5,1.5-2,2.9-4.6,2.9 c-3,0-5.2-2.4-5.2-5.7c0-3.3,2.1-5.6,5.2-5.6c1.8,0,3.2,0.8,4.2,2.3l0.1,0.2l3.2-2.2l-0.1-0.2c-1.6-2.5-4-3.7-7.3-3.7 c-5.3,0-9.3,4-9.3,9.2c0,5.4,3.9,9.2,9.4,9.2c2.8,0,5.1-0.9,6.6-2.5C257.4,93.3,258.2,90.7,258.1,87.6 M200.4,91.2l-0.1,0.2 c-1.2,1.8-2.5,2.5-4.4,2.5c-3,0-5.2-2.4-5.2-5.6c0-3.3,2.1-5.6,5.2-5.6c1.8,0,3.2,0.8,4.1,2.2l0.1,0.2l3.1-2.2l-0.1-0.2 c-1.6-2.5-4-3.7-7.2-3.7c-5.3,0-9.3,4-9.3,9.2c0,5.3,4,9.2,9.3,9.2c3.3,0,5.9-1.4,7.5-4l0.1-0.2L200.4,91.2z M208.4,79.2h4.1v18 h-4.1V79.2z"/><path class="st0" d="M21,93.4l-1.4,3.8h-0.7l-5-10.6l-5,10.6H8.2l-1.4-3.8l6.7-14.2h0.7L21,93.4z M6.3,92L1.5,79.2h4.2L8.7,87 L6.3,92z M21.5,92l4.8-12.8H22L19.1,87L21.5,92z M100.7,97.2h-3.9l-1.2-2.9h-3.2h-3.2l-1.2,2.9H84L92,79h0.3h0.3L100.7,97.2z M94.4,91.2l-1.5-4c-0.3-0.7-0.5-1.4-0.5-1.4s-0.2,0.6-0.5,1.4l-1.5,4l2,0L94.4,91.2z M47.3,79.2h-4.1v18H55V94h-7.8V79.2z M31.5,97.2h4.1v-18h-4.1V97.2z M137.3,86.4l-0.9-0.4c-1.2-0.5-2.3-1.1-2.3-2.2c0-0.9,0.5-1.5,1.6-1.5c1.1,0,2,0.7,2.5,1.6 l3.1-1.8c-1.3-2.2-3.4-3.1-5.6-3.1c-3.3,0-5.4,2.2-5.4,5c-0.1,3.1,2.1,4.5,4.8,5.6l0.9,0.4c1.7,0.7,2.5,1.3,2.5,2.4 c0,1.1-0.7,1.8-2.3,1.8c-1.8,0-2.9-1-3.6-2.4l-3.2,1.9c0.9,2,3.3,3.9,6.8,3.9c3.5,0,6.3-1.8,6.4-5.2 C142.5,89.5,140.6,87.7,137.3,86.4 M114.4,88.9l-8.7-9.9h-0.5v18.2h3.9v-6.6c0-2-0.1-3.1-0.1-3.1s0.7,1.1,1.4,1.9l3.8,4.7h0.6 l3.8-4.7c0.7-0.8,1.4-1.9,1.4-1.9s-0.1,1-0.1,3.1v6.6h3.9V79h-0.5L114.4,88.9z M63.4,79.2h-4.1v18h11.9V94h-7.8V79.2z M75.3,79.2 h4.1v18h-4.1V79.2z"/></g></g><g><path class="st0" d="M58.5,132c-0.8-0.3-1.3-0.8-1.7-1.4c-0.3-0.6-0.5-1.5-0.5-2.6c0-1.1,0.2-2,0.5-2.6c0.3-0.6,0.9-1.1,1.7-1.4 c0.8-0.3,1.8-0.4,3.1-0.4c1.3,0,2.4,0.1,3.1,0.4c0.8,0.3,1.3,0.8,1.7,1.4c0.3,0.6,0.5,1.5,0.5,2.6c0,1.1-0.2,2-0.5,2.6 c-0.3,0.6-0.9,1.1-1.7,1.4c-0.8,0.3-1.8,0.4-3.1,0.4C60.3,132.5,59.3,132.3,58.5,132z M63.3,130.1c0.4-0.1,0.6-0.3,0.8-0.7 c0.1-0.3,0.2-0.8,0.2-1.4c0-0.6-0.1-1.1-0.2-1.4c-0.1-0.3-0.4-0.5-0.8-0.7c-0.4-0.1-0.9-0.2-1.7-0.2s-1.3,0.1-1.7,0.2 c-0.4,0.1-0.6,0.3-0.8,0.7c-0.1,0.3-0.2,0.8-0.2,1.4c0,0.6,0.1,1.1,0.2,1.4c0.1,0.3,0.4,0.5,0.8,0.7c0.4,0.1,0.9,0.2,1.7,0.2 S63,130.2,63.3,130.1z"/><path class="st0" d="M67.8,123.8h8.9v2.1h-6.2v1.6h5.7v1.9h-5.7v2.9h-2.7V123.8z"/><path class="st0" d="M77.6,123.8h8.9v2.1h-6.2v1.6H86v1.9h-5.7v2.9h-2.7V123.8z"/><path class="st0" d="M87.4,123.8h2.7v8.5h-2.7V123.8z"/><path class="st0" d="M93.1,132c-0.8-0.3-1.3-0.8-1.7-1.4c-0.3-0.6-0.5-1.5-0.5-2.6c0-1.1,0.2-2,0.5-2.6c0.3-0.6,0.9-1.1,1.7-1.4 c0.8-0.3,1.8-0.4,3.1-0.4c1.3,0,2.3,0.1,3.1,0.4c0.8,0.2,1.3,0.6,1.7,1.2c0.4,0.5,0.5,1.2,0.6,2.1h-2.7c0-0.4-0.1-0.7-0.3-0.9 c-0.2-0.2-0.4-0.3-0.8-0.4c-0.4-0.1-0.9-0.1-1.6-0.1c-0.7,0-1.3,0.1-1.7,0.2c-0.4,0.1-0.6,0.3-0.8,0.7c-0.1,0.3-0.2,0.8-0.2,1.4 c0,0.6,0.1,1.1,0.2,1.4c0.1,0.3,0.4,0.5,0.8,0.7c0.4,0.1,0.9,0.2,1.7,0.2c0.7,0,1.2,0,1.6-0.1c0.4-0.1,0.6-0.2,0.8-0.4 c0.2-0.2,0.2-0.5,0.3-0.9h2.7c0,0.9-0.2,1.6-0.6,2.2c-0.4,0.5-0.9,0.9-1.7,1.2c-0.8,0.2-1.8,0.4-3.1,0.4 C94.9,132.5,93.8,132.3,93.1,132z"/><path class="st0" d="M102.4,123.8h2.7v8.5h-2.7V123.8z"/><path class="st0" d="M109.5,123.8h4.2l3.9,8.5h-2.8l-0.8-1.7h-4.8l-0.8,1.7h-2.8L109.5,123.8z M113.1,128.5l-1.5-3.3l-1.5,3.3 H113.1z"/><path class="st0" d="M118.1,123.8h2.7v6.2h6.2v2.2h-8.9V123.8z"/><path class="st0" d="M130.9,123.8h6c0.8,0,1.4,0.1,1.9,0.3c0.5,0.2,0.8,0.5,1,1c0.2,0.5,0.3,1.1,0.3,1.8c0,0.8-0.1,1.4-0.3,1.8 c-0.2,0.5-0.5,0.8-1,1c-0.5,0.2-1.1,0.3-1.9,0.3h-3.3v2.3h-2.7V123.8z M137,127.8c0.1-0.1,0.2-0.2,0.3-0.3 c0.1-0.1,0.1-0.4,0.1-0.7c0-0.3,0-0.5-0.1-0.7c-0.1-0.1-0.2-0.2-0.3-0.3c-0.1-0.1-0.4-0.1-0.7-0.1h-2.7v2.1h2.7 C136.7,127.9,136.9,127.9,137,127.8z"/><path class="st0" d="M143.4,123.8h4.2l3.9,8.5h-2.8l-0.8-1.7h-4.8l-0.8,1.7h-2.8L143.4,123.8z M147,128.5l-1.5-3.3l-1.5,3.3H147z"/><path class="st0" d="M152.1,123.8h6.4c0.8,0,1.4,0.1,1.8,0.3c0.5,0.2,0.8,0.5,1,0.9c0.2,0.4,0.3,1,0.3,1.7c0,0.8-0.1,1.4-0.4,1.8 c-0.2,0.4-0.6,0.7-1.2,0.9l1.7,2.8h-3l-1.5-2.6h-2.5v2.6h-2.7V123.8z M158.5,127.6c0.1,0,0.2-0.1,0.3-0.3c0.1-0.1,0.1-0.3,0.1-0.6 c0-0.2,0-0.4-0.1-0.6c-0.1-0.1-0.1-0.2-0.3-0.3c-0.1,0-0.3-0.1-0.6-0.1h-3.1v1.8h3.1C158.1,127.7,158.3,127.7,158.5,127.6z"/><path class="st0" d="M165.8,126H162v-2.2h10.2v2.2h-3.8v6.2h-2.7V126z"/><path class="st0" d="M173,123.8h4l3.4,5.9v-5.9h2.6v8.5H179l-3.4-5.9v5.9H173V123.8z"/><path class="st0" d="M184,123.8h8.9v1.9h-6.2v1.3h5.7v1.8h-5.7v1.4h6.2v1.9H184V123.8z"/><path class="st0" d="M193.8,123.8h6.4c0.8,0,1.4,0.1,1.8,0.3c0.5,0.2,0.8,0.5,1,0.9c0.2,0.4,0.3,1,0.3,1.7c0,0.8-0.1,1.4-0.4,1.8 c-0.2,0.4-0.6,0.7-1.2,0.9l1.7,2.8h-3l-1.5-2.6h-2.5v2.6h-2.7V123.8z M200.2,127.6c0.1,0,0.2-0.1,0.3-0.3c0.1-0.1,0.1-0.3,0.1-0.6 c0-0.2,0-0.4-0.1-0.6c-0.1-0.1-0.1-0.2-0.3-0.3c-0.1,0-0.3-0.1-0.6-0.1h-3.1v1.8h3.1C199.9,127.7,200.1,127.7,200.2,127.6z"/></g></g></svg>